<?xml version="1.0" encoding="UTF-8" standalone="no"?>
<!-- Created with Inkscape (http://www.inkscape.org/) -->

<svg
   xmlns:dc="http://purl.org/dc/elements/1.1/"
   xmlns:cc="http://creativecommons.org/ns#"
   xmlns:rdf="http://www.w3.org/1999/02/22-rdf-syntax-ns#"
   xmlns:svg="http://www.w3.org/2000/svg"
   xmlns="http://www.w3.org/2000/svg"
   version="1.0"
   width="720"
   height="720"
   id="svg2">
  <defs
     id="defs4" />
  <metadata
     id="metadata7">
    <rdf:RDF>
      <cc:Work
         rdf:about="">
        <dc:format>image/svg+xml</dc:format>
        <dc:type
           rdf:resource="http://purl.org/dc/dcmitype/StillImage" />
        <dc:title></dc:title>
      </cc:Work>
    </rdf:RDF>
  </metadata>
  <g
     transform="translate(0,360)"
     id="layer1">
    <path
       d="M 317.8712,40.000059 360,360.00003 402.12879,40.000059 z"
       transform="translate(-3.4516404e-7,-360)"
       id="path3153"
       style="fill:#ff0000;stroke:none" />
    <path
       d="M 317.8712,40.000059 360,360.00003 402.12879,40.000059 z"
       transform="matrix(0.96592583,0.25881905,-0.25881905,0.96592583,105.44157,-440.90814)"
       id="path3168"
       style="fill:#ff4000;stroke:none" />
    <path
       d="M 317.8712,40.000059 360,360.00003 402.12879,40.000059 z"
       transform="matrix(0.86602541,0.50000001,-0.50000001,0.86602541,228.23087,-491.76913)"
       id="path3170"
       style="fill:#ff8000;stroke:none" />
    <path
       d="M 317.8712,40.000059 360,360.00003 402.12879,40.000059 z"
       transform="matrix(0.70710678,0.70710679,-0.70710679,0.70710678,360.00004,-509.11687)"
       id="path3172"
       style="fill:#ffc000;stroke:none" />
    <path
       d="M 317.8712,40.000059 360,360.00003 402.12879,40.000059 z"
       transform="matrix(0.5,0.86602541,-0.86602541,0.5,491.76918,-491.76912)"
       id="path3174"
       style="fill:#ffff00;stroke:none" />
    <path
       d="M 317.8712,40.000059 360,360.00003 402.12879,40.000059 z"
       transform="matrix(0.25881904,0.96592583,-0.96592583,0.25881904,614.55847,-440.90811)"
       id="path3187"
       style="fill:#c0ff00;stroke:none" />
    <path
       d="M 317.8712,40.000059 360,360.00003 402.12879,40.000059 z"
       transform="matrix(0,1,-1,0,720.00003,-359.99995)"
       id="path3189"
       style="fill:#80ff00;stroke:none" />
    <path
       d="M 317.8712,40.000059 360,360.00003 402.12879,40.000059 z"
       transform="matrix(-0.25881905,0.96592583,-0.96592583,-0.25881905,800.9082,-254.5584)"
       id="path3191"
       style="fill:#40ff00;stroke:none" />
    <path
       d="M 317.8712,40.000059 360,360.00003 402.12879,40.000059 z"
       transform="matrix(-0.50000001,0.86602541,-0.86602541,-0.50000001,851.76919,-131.76909)"
       id="path3193"
       style="fill:#00ff00;stroke:none" />
    <path
       d="M 317.8712,40.000059 360,360.00003 402.12879,40.000059 z"
       transform="matrix(-0.70710679,0.70710678,-0.70710678,-0.70710679,869.1169,7.5777775e-5)"
       id="path3195"
       style="fill:#00ff40;stroke:none" />
    <path
       d="M 317.8712,40.000059 360,360.00003 402.12879,40.000059 z"
       transform="matrix(-0.86602541,0.5,-0.5,-0.86602541,851.76916,131.76922)"
       id="path3197"
       style="fill:#00ff80;stroke:none" />
    <path
       d="M 317.8712,40.000059 360,360.00003 402.12879,40.000059 z"
       transform="matrix(-0.96592583,0.25881904,-0.25881904,-0.96592583,800.90815,254.55852)"
       id="path3199"
       style="fill:#00ffc0;stroke:none" />
    <path
       d="M 317.8712,40.000059 360,360.00003 402.12879,40.000059 z"
       transform="matrix(-1,0,0,-1,719.99999,360.00008)"
       id="path3201"
       style="fill:#00ffff;stroke:none" />
    <path
       d="M 317.8712,40.000059 360,360.00003 402.12879,40.000059 z"
       transform="matrix(-0.96592583,-0.25881905,0.25881905,-0.96592583,614.55842,440.90823)"
       id="path3203"
       style="fill:#00c0ff;stroke:none" />
    <path
       d="M 317.8712,40.000059 360,360.00003 402.12879,40.000059 z"
       transform="matrix(-0.86602541,-0.50000001,0.50000001,-0.86602541,491.76913,491.76923)"
       id="path3205"
       style="fill:#0080ff;stroke:none" />
    <path
       d="M 317.8712,40.000059 360,360.00003 402.12879,40.000059 z"
       transform="matrix(-0.70710678,-0.70710679,0.70710679,-0.70710678,359.99999,509.11694)"
       id="path3207"
       style="fill:#0040ff;stroke:none" />
    <path
       d="M 317.8712,40.000059 360,360.00003 402.12879,40.000059 z"
       transform="matrix(-0.5,-0.86602541,0.86602541,-0.5,228.23081,491.76921)"
       id="path3209"
       style="fill:#0000ff;stroke:none" />
    <path
       d="M 317.8712,40.000059 360,360.00003 402.12879,40.000059 z"
       transform="matrix(-0.25881904,-0.96592583,0.96592583,-0.25881904,105.44152,440.90819)"
       id="path3211"
       style="fill:#4000ff;stroke:none" />
    <path
       d="M 317.8712,40.000059 360,360.00003 402.12879,40.000059 z"
       transform="matrix(0,-1,1,0,-3.6194538e-5,360.00003)"
       id="path3213"
       style="fill:#8000ff;stroke:none" />
    <path
       d="M 317.8712,40.000059 360,360.00003 402.12879,40.000059 z"
       transform="matrix(0.25881905,-0.96592583,0.96592583,0.25881905,-80.908202,254.55848)"
       id="path3215"
       style="fill:#c000ff;stroke:none" />
    <path
       d="M 317.8712,40.000059 360,360.00003 402.12879,40.000059 z"
       transform="matrix(0.50000001,-0.86602541,0.86602541,0.50000001,-131.76916,131.76916)"
       id="path3217"
       style="fill:#ff00ff;stroke:none" />
    <path
       d="M 317.8712,40.000059 360,360.00003 402.12879,40.000059 z"
       transform="matrix(0.70710679,-0.70710678,0.70710678,0.70710679,-149.11689,6.1867967e-6)"
       id="path3219"
       style="fill:#ff00c0;stroke:none" />
    <path
       d="M 317.8712,40.000059 360,360.00003 402.12879,40.000059 z"
       transform="matrix(0.86602541,-0.5,0.5,0.86602541,-131.76917,-131.76914)"
       id="path3221"
       style="fill:#ff0080;stroke:none" />
    <path
       d="M 317.8712,40.000059 360,360.00003 402.12879,40.000059 z"
       transform="matrix(0.96592583,-0.25881904,0.25881904,0.96592583,-80.90816,-254.55842)"
       id="path3223"
       style="fill:#ff0040;stroke:none" />
  </g>
</svg>
